<svg width="24" height="25" viewBox="0 0 24 25" fill="none" xmlns="http://www.w3.org/2000/svg">
<path d="M4 20.5C3.45 20.5 2.97933 20.3043 2.588 19.913C2.19667 19.5217 2.00067 19.0507 2 18.5V6.5C2 5.95 2.196 5.47933 2.588 5.088C2.98 4.69667 3.45067 4.50067 4 4.5H20C20.55 4.5 21.021 4.696 21.413 5.088C21.805 5.48 22.0007 5.95067 22 6.5V18.5C22 19.05 21.8043 19.521 21.413 19.913C21.0217 20.305 20.5507 20.5007 20 20.5H4ZM12 13.325C12.0833 13.325 12.171 13.3123 12.263 13.287C12.355 13.2617 12.4423 13.2243 12.525 13.175L19.6 8.75C19.7333 8.66667 19.8333 8.56267 19.9 8.438C19.9667 8.31333 20 8.17567 20 8.025C20 7.69167 19.8583 7.44167 19.575 7.275C19.2917 7.10833 19 7.11667 18.7 7.3L12 11.5L5.3 7.3C5 7.11667 4.70833 7.11267 4.425 7.288C4.14167 7.46333 4 7.709 4 8.025C4 8.19167 4.03333 8.33767 4.1 8.463C4.16667 8.58833 4.26667 8.684 4.4 8.75L11.475 13.175C11.5583 13.225 11.646 13.2627 11.738 13.288C11.83 13.3133 11.9173 13.3257 12 13.325Z" fill="#565878"/>
</svg>
