<svg width="32" height="32" viewBox="0 0 32 32" fill="none" xmlns="http://www.w3.org/2000/svg">
<path d="M16 3.32349C8.8708 3.32349 3 9.11109 3 16.3235C3 22.0266 6.7323 26.8925 11.9323 28.6527C12.6031 28.7788 12.8124 28.3589 12.8124 28.0651C12.8124 27.7713 12.8124 26.9341 12.7708 25.8005C9.1646 26.639 8.4093 24.039 8.4093 24.039C7.823 22.5713 6.9416 22.1527 6.9416 22.1527C5.7677 21.3142 6.9845 21.3142 6.9845 21.3142C8.2845 21.3558 8.9969 22.6558 8.9969 22.6558C10.1279 24.6682 12.0584 24.0819 12.7708 23.7036C12.8969 22.8651 13.2323 22.2788 13.6093 21.9434C10.7584 21.6496 7.6969 20.5173 7.6969 15.5682C7.6969 14.1434 8.2429 13.0111 9.0385 12.1297C8.9124 11.8359 8.4522 10.4943 9.1646 8.69119C9.1646 8.69119 10.2956 8.35579 12.7708 10.0328C13.8348 9.73004 14.9354 9.57475 16.0416 9.57129C17.1739 9.57129 18.3062 9.69739 19.3124 10.0328C21.7876 8.39739 22.877 8.69119 22.877 8.69119C23.5907 10.4527 23.1708 11.8372 23.0031 12.1297C23.8416 13.0111 24.3447 14.1837 24.3447 15.5682C24.3447 20.5173 21.2832 21.6496 18.4323 21.9434C18.8938 22.362 19.3124 23.2005 19.3124 24.3744C19.3124 26.1359 19.2708 27.5204 19.2708 27.939C19.2708 28.2757 19.523 28.6527 20.1522 28.5266C25.2677 26.808 29 21.985 29 16.2403C28.9584 9.11109 23.1292 3.32349 16 3.32349Z" fill="#565878"/>
</svg>
