<svg width="32" height="32" viewBox="0 0 32 32" fill="none" xmlns="http://www.w3.org/2000/svg">
<path fill-rule="evenodd" clip-rule="evenodd" d="M12.6577 12.0597H17.4859V14.4647C18.1814 13.0815 19.965 11.8387 22.6443 11.8387C27.7806 11.8387 29 14.5921 29 19.6439V29H23.8V20.7944C23.8 17.9175 23.1045 16.2951 21.3339 16.2951C18.8782 16.2951 17.8577 18.0436 17.8577 20.7931V29H12.6577V12.0597ZM3.741 28.779H8.941V11.8387H3.741V28.779ZM9.6859 6.315C9.68609 6.75086 9.59965 7.18241 9.4316 7.58456C9.26355 7.98672 9.01725 8.35147 8.707 8.6576C8.39583 8.96715 8.02672 9.21236 7.62075 9.37921C7.21478 9.54606 6.77992 9.63128 6.341 9.63C5.45648 9.62801 4.60799 9.27937 3.9776 8.6589C3.66859 8.35164 3.42319 7.98647 3.25545 7.58428C3.0877 7.18209 3.00089 6.75077 3 6.315C3 5.4349 3.351 4.5925 3.9789 3.9711C4.60771 3.34825 5.45723 2.99919 6.3423 3C7.2289 3 8.0791 3.3497 8.707 3.9711C9.3349 4.5925 9.6859 5.4349 9.6859 6.315Z" fill="#565878"/>
</svg>
