<svg width="32" height="32" viewBox="0 0 32 32" fill="none" xmlns="http://www.w3.org/2000/svg">
<path d="M5.6 26.3999C4.885 26.3999 4.27313 26.1455 3.7644 25.6368C3.25567 25.128 3.00087 24.5157 3 23.7999V8.19985C3 7.48485 3.2548 6.87299 3.7644 6.36425C4.274 5.85552 4.88587 5.60072 5.6 5.59985H26.4C27.115 5.59985 27.7273 5.85465 28.2369 6.36425C28.7465 6.87385 29.0009 7.48572 29 8.19985V23.7999C29 24.5149 28.7456 25.1272 28.2369 25.6368C27.7282 26.1464 27.1159 26.4007 26.4 26.3999H5.6ZM26.4 10.7999L16.6825 16.8774C16.5742 16.9424 16.4606 16.9913 16.3419 17.0243C16.2232 17.0572 16.1092 17.0732 16 17.0724C15.8908 17.0715 15.7773 17.0555 15.6594 17.0243C15.5415 16.9931 15.4276 16.9441 15.3175 16.8774L5.6 10.7999V23.7999H26.4V10.7999ZM16 14.6999L26.4 8.19985H5.6L16 14.6999ZM5.6 11.1249V9.20735V9.23985V9.22425V11.1249Z" fill="#565878"/>
</svg>
