<svg xmlns="http://www.w3.org/2000/svg" xmlns:xlink="http://www.w3.org/1999/xlink" width="200" zoomAndPan="magnify" viewBox="0 0 150 138.749998" height="185" preserveAspectRatio="xMidYMid meet" version="1.2"><defs><clipPath id="47abd03601"><path d="M 34 0.210938 L 116 0.210938 L 116 12 L 34 12 Z M 34 0.210938 "/></clipPath><clipPath id="e078f36237"><path d="M 0.136719 57 L 12 57 L 12 82 L 0.136719 82 Z M 0.136719 57 "/></clipPath><clipPath id="20f03d306e"><path d="M 34 127 L 116 127 L 116 138.5 L 34 138.5 Z M 34 127 "/></clipPath><clipPath id="7bd6634f1a"><path d="M 138 57 L 149.863281 57 L 149.863281 82 L 138 82 Z M 138 57 "/></clipPath></defs><g id="1ca789547a"><g clip-rule="nonzero" clip-path="url(#47abd03601)"><path style=" stroke:none;fill-rule:nonzero;fill:#000000;fill-opacity:1;" d="M 57.726562 11.773438 L 115.320312 11.773438 L 115.320312 0.226562 L 34.691406 0.226562 L 34.691406 11.773438 Z M 57.726562 11.773438 "/></g><path style=" stroke:none;fill-rule:nonzero;fill:#000000;fill-opacity:1;" d="M 115.320312 34.863281 L 126.835938 34.863281 L 126.835938 11.773438 L 115.320312 11.773438 Z M 115.320312 34.863281 "/><path style=" stroke:none;fill-rule:nonzero;fill:#000000;fill-opacity:1;" d="M 34.691406 23.316406 L 34.691406 11.773438 L 23.171875 11.773438 L 23.171875 34.863281 L 34.691406 34.863281 Z M 34.691406 23.316406 "/><path style=" stroke:none;fill-rule:nonzero;fill:#000000;fill-opacity:1;" d="M 23.171875 46.40625 L 23.171875 34.863281 L 11.652344 34.863281 L 11.652344 57.949219 L 23.171875 57.949219 Z M 23.171875 46.40625 "/><g clip-rule="nonzero" clip-path="url(#e078f36237)"><path style=" stroke:none;fill-rule:nonzero;fill:#000000;fill-opacity:1;" d="M 11.652344 57.949219 L 0.136719 57.949219 L 0.136719 81.039062 L 11.652344 81.039062 Z M 11.652344 57.949219 "/></g><path style=" stroke:none;fill-rule:nonzero;fill:#000000;fill-opacity:1;" d="M 115.320312 115.675781 L 115.320312 127.21875 L 126.835938 127.21875 L 126.835938 104.128906 L 115.320312 104.128906 Z M 115.320312 115.675781 "/><g clip-rule="nonzero" clip-path="url(#20f03d306e)"><path style=" stroke:none;fill-rule:nonzero;fill:#000000;fill-opacity:1;" d="M 92.28125 127.21875 L 34.691406 127.21875 L 34.691406 138.765625 L 115.320312 138.765625 L 115.320312 127.21875 Z M 92.28125 127.21875 "/></g><path style=" stroke:none;fill-rule:nonzero;fill:#000000;fill-opacity:1;" d="M 34.691406 104.128906 L 23.171875 104.128906 L 23.171875 127.21875 L 34.691406 127.21875 Z M 34.691406 104.128906 "/><path style=" stroke:none;fill-rule:nonzero;fill:#000000;fill-opacity:1;" d="M 23.171875 81.039062 L 11.652344 81.039062 L 11.652344 104.128906 L 23.171875 104.128906 Z M 23.171875 81.039062 "/><path style=" stroke:none;fill-rule:nonzero;fill:#000000;fill-opacity:1;" d="M 126.835938 57.949219 L 138.355469 57.949219 L 138.355469 34.863281 L 126.835938 34.863281 Z M 126.835938 57.949219 "/><path style=" stroke:none;fill-rule:nonzero;fill:#ffffff;fill-opacity:1;" d="M 138.355469 57.949219 L 126.835938 57.949219 L 126.835938 34.863281 L 115.320312 34.863281 L 115.320312 11.773438 L 34.691406 11.773438 L 34.691406 34.863281 L 23.171875 34.863281 L 23.171875 57.949219 L 11.652344 57.949219 L 11.652344 81.039062 L 23.171875 81.039062 L 23.171875 104.128906 L 34.691406 104.128906 L 34.691406 127.21875 L 115.320312 127.21875 L 115.320312 104.128906 L 126.835938 104.128906 L 126.835938 81.039062 L 138.355469 81.039062 Z M 138.355469 57.949219 "/><g clip-rule="nonzero" clip-path="url(#7bd6634f1a)"><path style=" stroke:none;fill-rule:nonzero;fill:#000000;fill-opacity:1;" d="M 138.355469 57.949219 L 138.355469 81.039062 L 149.871094 81.039062 L 149.871094 57.949219 Z M 138.355469 57.949219 "/></g><path style=" stroke:none;fill-rule:nonzero;fill:#000000;fill-opacity:1;" d="M 126.835938 92.582031 L 126.835938 104.128906 L 138.355469 104.128906 L 138.355469 81.039062 L 126.835938 81.039062 Z M 126.835938 92.582031 "/><g style="fill:#a2a3bc;fill-opacity:1;"><g transform="translate(34.286825, 89.595915)"><path style="stroke:none" d="M 5.5 12.65625 L 5.5 -38.984375 L 10.296875 -38.984375 L 12.109375 -32.859375 C 13.304688 -34.898438 14.953125 -36.535156 17.046875 -37.765625 C 19.148438 -39.003906 21.722656 -39.625 24.765625 -39.625 C 27.753906 -39.625 30.519531 -38.820312 33.0625 -37.21875 C 35.601562 -35.625 37.644531 -33.316406 39.1875 -30.296875 C 40.726562 -27.285156 41.5 -23.632812 41.5 -19.34375 C 41.5 -15.09375 40.726562 -11.445312 39.1875 -8.40625 C 37.644531 -5.375 35.601562 -3.054688 33.0625 -1.453125 C 30.519531 0.140625 27.753906 0.9375 24.765625 0.9375 C 21.722656 0.9375 19.148438 0.320312 17.046875 -0.90625 C 14.953125 -2.132812 13.304688 -3.796875 12.109375 -5.890625 L 12.109375 12.65625 Z M 23.03125 -4.71875 C 26.382812 -4.71875 29.066406 -6 31.078125 -8.5625 C 33.097656 -11.132812 34.109375 -14.726562 34.109375 -19.34375 C 34.109375 -24 33.097656 -27.597656 31.078125 -30.140625 C 29.066406 -32.679688 26.382812 -33.953125 23.03125 -33.953125 C 19.675781 -33.953125 16.988281 -32.679688 14.96875 -30.140625 C 12.957031 -27.597656 11.953125 -24 11.953125 -19.34375 C 11.953125 -14.726562 12.957031 -11.132812 14.96875 -8.5625 C 16.988281 -6 19.675781 -4.71875 23.03125 -4.71875 Z M 23.03125 -4.71875 "/></g></g><g style="fill:#a2a3bc;fill-opacity:1;"><g transform="translate(78.773304, 89.595915)"><path style="stroke:none" d="M 24.765625 0.9375 C 21.722656 0.9375 19.148438 0.320312 17.046875 -0.90625 C 14.953125 -2.132812 13.304688 -3.796875 12.109375 -5.890625 L 10.375 0 L 5.5 0 L 5.5 -52.515625 L 12.109375 -52.515625 L 12.109375 -32.859375 C 13.304688 -34.898438 14.953125 -36.535156 17.046875 -37.765625 C 19.148438 -39.003906 21.722656 -39.625 24.765625 -39.625 C 27.753906 -39.625 30.519531 -38.820312 33.0625 -37.21875 C 35.601562 -35.625 37.644531 -33.316406 39.1875 -30.296875 C 40.726562 -27.285156 41.5 -23.632812 41.5 -19.34375 C 41.5 -15.039062 40.726562 -11.382812 39.1875 -8.375 C 37.644531 -5.363281 35.601562 -3.054688 33.0625 -1.453125 C 30.519531 0.140625 27.753906 0.9375 24.765625 0.9375 Z M 23.03125 -4.71875 C 26.382812 -4.71875 29.066406 -6 31.078125 -8.5625 C 33.097656 -11.132812 34.109375 -14.726562 34.109375 -19.34375 C 34.109375 -24 33.097656 -27.597656 31.078125 -30.140625 C 29.066406 -32.679688 26.382812 -33.953125 23.03125 -33.953125 C 19.675781 -33.953125 16.988281 -32.679688 14.96875 -30.140625 C 12.957031 -27.597656 11.953125 -24 11.953125 -19.34375 C 11.953125 -14.726562 12.957031 -11.132812 14.96875 -8.5625 C 16.988281 -6 19.675781 -4.71875 23.03125 -4.71875 Z M 23.03125 -4.71875 "/></g></g><g style="fill:#575878;fill-opacity:1;"><g transform="translate(32.748118, 87.314687)"><path style="stroke:none" d="M 4.054688 12.65625 L 4.054688 -40.4375 L 11.382812 -40.4375 L 13.496094 -33.265625 L 12.105469 -32.855469 L 10.855469 -33.59375 C 12.1875 -35.851562 14.011719 -37.660156 16.324219 -39.019531 C 18.644531 -40.382812 21.457031 -41.066406 24.761719 -41.066406 C 28.027344 -41.066406 31.046875 -40.195312 33.824219 -38.445312 C 36.589844 -36.707031 38.808594 -34.214844 40.476562 -30.964844 C 42.128906 -27.742188 42.953125 -23.867188 42.953125 -19.335938 C 42.953125 -14.859375 42.128906 -11 40.476562 -7.753906 C 38.808594 -4.476562 36.59375 -1.96875 33.824219 -0.226562 C 31.046875 1.519531 28.027344 2.394531 24.761719 2.394531 C 21.457031 2.394531 18.644531 1.710938 16.324219 0.347656 C 14.007812 -1.015625 12.179688 -2.855469 10.847656 -5.171875 L 12.105469 -5.894531 L 13.554688 -5.894531 L 13.554688 14.105469 L 4.054688 14.105469 Z M 6.953125 12.65625 L 5.503906 12.65625 L 5.503906 11.207031 L 12.105469 11.207031 L 12.105469 12.65625 L 10.65625 12.65625 L 10.65625 -11.324219 L 13.363281 -6.617188 C 14.441406 -4.742188 15.917969 -3.253906 17.792969 -2.152344 C 19.660156 -1.054688 21.984375 -0.507812 24.761719 -0.507812 C 27.46875 -0.507812 29.976562 -1.230469 32.28125 -2.679688 C 34.597656 -4.136719 36.46875 -6.265625 37.894531 -9.066406 C 39.335938 -11.902344 40.054688 -15.324219 40.054688 -19.335938 C 40.054688 -23.402344 39.335938 -26.835938 37.894531 -29.640625 C 36.46875 -32.417969 34.597656 -34.535156 32.28125 -35.992188 C 29.976562 -37.441406 27.46875 -38.167969 24.761719 -38.167969 C 21.984375 -38.167969 19.660156 -37.617188 17.792969 -36.519531 C 15.910156 -35.414062 14.433594 -33.949219 13.355469 -32.121094 L 11.660156 -29.246094 L 8.90625 -38.578125 L 10.296875 -38.988281 L 10.296875 -37.539062 L 5.503906 -37.539062 L 5.503906 -38.988281 L 6.953125 -38.988281 Z M 23.03125 -6.164062 C 25.914062 -6.164062 28.222656 -7.265625 29.949219 -9.464844 C 31.761719 -11.769531 32.664062 -15.058594 32.664062 -19.335938 C 32.664062 -23.664062 31.761719 -26.964844 29.953125 -29.246094 C 28.226562 -31.421875 25.917969 -32.507812 23.03125 -32.507812 C 20.144531 -32.507812 17.835938 -31.421875 16.109375 -29.246094 C 14.300781 -26.964844 13.398438 -23.664062 13.398438 -19.335938 C 13.398438 -15.058594 14.304688 -11.769531 16.113281 -9.464844 C 17.839844 -7.265625 20.148438 -6.164062 23.03125 -6.164062 Z M 23.03125 -3.265625 C 19.207031 -3.265625 16.140625 -4.734375 13.835938 -7.671875 C 11.609375 -10.503906 10.5 -14.390625 10.5 -19.335938 C 10.5 -24.339844 11.613281 -28.242188 13.839844 -31.046875 C 16.148438 -33.953125 19.210938 -35.40625 23.03125 -35.40625 C 26.851562 -35.40625 29.917969 -33.953125 32.222656 -31.046875 C 34.449219 -28.242188 35.566406 -24.339844 35.566406 -19.335938 C 35.566406 -14.390625 34.453125 -10.503906 32.230469 -7.671875 C 29.921875 -4.734375 26.855469 -3.265625 23.03125 -3.265625 Z M 23.03125 -3.265625 "/></g></g><g style="fill:#575878;fill-opacity:1;"><g transform="translate(77.234598, 87.314687)"><path style="stroke:none" d="M 24.761719 2.394531 C 21.457031 2.394531 18.644531 1.710938 16.324219 0.347656 C 14.007812 -1.015625 12.179688 -2.855469 10.847656 -5.171875 L 12.105469 -5.894531 L 13.496094 -5.488281 L 11.460938 1.449219 L 4.054688 1.449219 L 4.054688 -53.957031 L 13.554688 -53.957031 L 13.554688 -32.855469 L 12.105469 -32.855469 L 10.855469 -33.59375 C 12.1875 -35.851562 14.011719 -37.660156 16.324219 -39.019531 C 18.644531 -40.382812 21.457031 -41.066406 24.761719 -41.066406 C 28.027344 -41.066406 31.046875 -40.195312 33.824219 -38.445312 C 36.589844 -36.707031 38.808594 -34.214844 40.476562 -30.964844 C 42.128906 -27.742188 42.953125 -23.867188 42.953125 -19.335938 C 42.953125 -14.804688 42.128906 -10.929688 40.476562 -7.710938 C 38.808594 -4.460938 36.589844 -1.964844 33.824219 -0.226562 C 31.046875 1.519531 28.027344 2.394531 24.761719 2.394531 Z M 24.761719 -0.507812 C 27.46875 -0.507812 29.976562 -1.230469 32.28125 -2.679688 C 34.597656 -4.136719 36.46875 -6.253906 37.894531 -9.035156 C 39.335938 -11.839844 40.054688 -15.273438 40.054688 -19.335938 C 40.054688 -23.402344 39.335938 -26.835938 37.894531 -29.640625 C 36.46875 -32.417969 34.597656 -34.535156 32.28125 -35.992188 C 29.976562 -37.441406 27.46875 -38.167969 24.761719 -38.167969 C 21.984375 -38.167969 19.660156 -37.617188 17.792969 -36.519531 C 15.910156 -35.414062 14.433594 -33.949219 13.355469 -32.121094 L 10.65625 -27.546875 L 10.65625 -52.507812 L 12.105469 -52.507812 L 12.105469 -51.058594 L 5.503906 -51.058594 L 5.503906 -52.507812 L 6.953125 -52.507812 L 6.953125 0 L 5.503906 0 L 5.503906 -1.449219 L 10.375 -1.449219 L 10.375 0 L 8.984375 -0.40625 L 11.667969 -9.5625 L 13.363281 -6.617188 C 14.441406 -4.742188 15.917969 -3.253906 17.792969 -2.152344 C 19.660156 -1.054688 21.984375 -0.507812 24.761719 -0.507812 Z M 23.03125 -6.164062 C 25.914062 -6.164062 28.222656 -7.265625 29.949219 -9.464844 C 31.761719 -11.769531 32.664062 -15.058594 32.664062 -19.335938 C 32.664062 -23.664062 31.761719 -26.964844 29.953125 -29.246094 C 28.226562 -31.421875 25.917969 -32.507812 23.03125 -32.507812 C 20.144531 -32.507812 17.835938 -31.421875 16.109375 -29.246094 C 14.300781 -26.964844 13.398438 -23.664062 13.398438 -19.335938 C 13.398438 -15.058594 14.304688 -11.769531 16.113281 -9.464844 C 17.839844 -7.265625 20.148438 -6.164062 23.03125 -6.164062 Z M 23.03125 -3.265625 C 19.207031 -3.265625 16.140625 -4.734375 13.835938 -7.671875 C 11.609375 -10.503906 10.5 -14.390625 10.5 -19.335938 C 10.5 -24.339844 11.613281 -28.242188 13.839844 -31.046875 C 16.148438 -33.953125 19.210938 -35.40625 23.03125 -35.40625 C 26.851562 -35.40625 29.917969 -33.953125 32.222656 -31.046875 C 34.449219 -28.242188 35.566406 -24.339844 35.566406 -19.335938 C 35.566406 -14.390625 34.453125 -10.503906 32.230469 -7.671875 C 29.921875 -4.734375 26.855469 -3.265625 23.03125 -3.265625 Z M 23.03125 -3.265625 "/></g></g></g></svg>